<svg width="76" height="76" viewBox="0 0 76 76" fill="none" xmlns="http://www.w3.org/2000/svg">
<path d="M28.5 32.0625H47.5" stroke="#2E928A" stroke-width="6" stroke-linecap="round" stroke-linejoin="round"/>
<path d="M28.5 43.9375H34.4375" stroke="#2E928A" stroke-width="6" stroke-linecap="round" stroke-linejoin="round"/>
<path d="M46.5203 64.125H14.25C13.6201 64.125 13.016 63.8748 12.5706 63.4294C12.1252 62.984 11.875 62.3799 11.875 61.75V14.25C11.875 13.6201 12.1252 13.016 12.5706 12.5706C13.016 12.1252 13.6201 11.875 14.25 11.875H61.75C62.3799 11.875 62.984 12.1252 63.4294 12.5706C63.8748 13.016 64.125 13.6201 64.125 14.25V46.5203C64.1261 46.8287 64.0663 47.1343 63.9492 47.4196C63.832 47.7048 63.6597 47.9642 63.4422 48.1828L48.1828 63.4422C47.9642 63.6597 47.7048 63.832 47.4196 63.9492C47.1343 64.0663 46.8287 64.1261 46.5203 64.125V64.125Z" stroke="#2E928A" stroke-width="6" stroke-linecap="round" stroke-linejoin="round"/>
<path d="M63.9172 46.3125H46.3125V63.9172" stroke="#2E928A" stroke-width="6" stroke-linecap="round" stroke-linejoin="round"/>
</svg>
