<svg width="76" height="76" viewBox="0 0 76 76" fill="none" xmlns="http://www.w3.org/2000/svg">
<path d="M39.3056 56.6139L54.2681 66.1139C56.1978 67.3311 58.5728 65.5201 58.0087 63.2936L53.6744 46.253C53.5572 45.7806 53.5758 45.2848 53.7281 44.8226C53.8804 44.3603 54.1603 43.9506 54.5353 43.6405L67.9541 32.4483C69.7056 30.9936 68.815 28.0545 66.5291 27.9061L49.0134 26.778C48.5355 26.7501 48.0761 26.5837 47.6912 26.299C47.3063 26.0143 47.0127 25.6237 46.8463 25.1748L40.315 8.72795C40.1421 8.25267 39.8272 7.84209 39.4129 7.55196C38.9986 7.26183 38.5051 7.1062 37.9994 7.1062C37.4936 7.1062 37.0001 7.26183 36.5859 7.55196C36.1716 7.84209 35.8566 8.25267 35.6838 8.72795L29.1525 25.1748C28.986 25.6237 28.6924 26.0143 28.3076 26.299C27.9227 26.5837 27.4632 26.7501 26.9853 26.778L9.46969 27.9061C7.18375 28.0545 6.29313 30.9936 8.04469 32.4483L21.4634 43.6405C21.8385 43.9506 22.1183 44.3603 22.2706 44.8226C22.4229 45.2848 22.4416 45.7806 22.3244 46.253L18.3166 62.0467C17.6338 64.7186 20.4838 66.8858 22.7697 65.4311L36.6931 56.6139C37.0836 56.3656 37.5367 56.2338 37.9994 56.2338C38.4621 56.2338 38.9152 56.3656 39.3056 56.6139V56.6139Z" stroke="#2E928A" stroke-width="6" stroke-linecap="round" stroke-linejoin="round"/>
</svg>
