<svg width="158" height="27" viewBox="0 0 158 27" fill="none" xmlns="http://www.w3.org/2000/svg">
<g clip-path="url(#clip0_474_1340)">
<path d="M106.609 26.4302C106.609 26.5951 106.75 26.7301 106.923 26.7301H114.713C114.886 26.7301 115.027 26.5951 115.027 26.4302V0.652307C115.027 0.487249 114.886 0.352201 114.713 0.352201H106.923C106.75 0.352201 106.609 0.487249 106.609 0.652307V26.4302ZM70.2431 26.1107L58.7724 0.783604C58.7038 0.632092 58.506 0.50809 58.3329 0.50809H46.7911C46.618 0.50809 46.4202 0.6323 46.3516 0.783604L34.8807 26.1107C34.8121 26.2624 34.8975 26.3864 35.0706 26.3864H43.1863C43.3594 26.3864 43.5542 26.261 43.6189 26.108L45.2763 22.1939C45.3412 22.0409 45.5359 21.9157 45.709 21.9157H59.4362C59.6093 21.9157 59.8011 22.0418 59.8628 22.1964L61.4206 26.1059C61.4822 26.2602 61.6741 26.3867 61.8472 26.3867H70.053C70.2263 26.3864 70.3117 26.2624 70.2431 26.1107ZM47.5582 16.4133L51.3447 6.99914C51.7953 6.0536 52.2237 5.9246 52.6295 5.9246C53.0579 5.9246 53.5538 6.3114 53.8241 7.04208L57.5584 16.4133H47.5582ZM140.917 0.19402H132.029C121.275 0.346991 119.629 3.61169 119.629 13.1655C119.629 14.7869 119.629 16.4083 119.712 18.0299C120.002 24.3972 123.652 26.3744 129.748 26.8095C131.656 26.9281 136.1 27.0071 136.283 26.9996C136.283 26.9996 141.291 26.9281 143.198 26.8095C149.295 26.3744 152.944 24.3972 153.234 18.0299C153.317 16.4083 153.317 14.7869 153.317 13.1655C153.317 3.61169 151.671 0.346991 140.917 0.19402ZM144.816 14.2728C144.816 18.6231 144.525 20.3235 139.507 20.4423C138.199 20.5114 134.748 20.5114 133.439 20.4423C128.421 20.3237 128.13 18.6231 128.13 14.2728V13.2049C128.13 12.1768 128.13 11.1485 128.255 10.1203C128.753 6.48188 131.614 6.67966 134.434 6.60046C135.468 6.58587 137.477 6.58587 138.512 6.60046C141.332 6.67966 144.193 6.48188 144.691 10.1203C144.815 11.1485 144.815 12.1768 144.815 13.2049V14.2728H144.816ZM25.1576 16.544C24.927 19.2308 23.9464 20.347 19.9177 20.4423C18.609 20.5114 15.1582 20.5114 13.8495 20.4423C8.83146 20.3237 8.54123 18.6231 8.54123 14.2728V13.2049C8.54123 12.1768 8.54124 11.1485 8.66537 10.1203C9.163 6.48188 12.0247 6.67966 14.8446 6.60046C15.8787 6.58587 17.888 6.58587 18.9222 6.60046C21.6129 6.6759 24.3395 6.50209 25.0166 9.6455H33.6197C33.1197 2.79057 30.6352 0.32615 21.3275 0.193603H12.4392C1.68608 0.346991 0.0395508 3.61169 0.0395508 13.1655C0.0395508 14.7869 0.0395508 16.4083 0.122599 18.0299C0.413047 24.3972 4.06234 26.3744 10.1587 26.8095C12.0664 26.9281 16.5101 27.0071 16.6939 26.9996C16.6939 26.9996 21.701 26.9281 23.6087 26.8095C29.7053 26.3744 33.3546 24.3972 33.6448 18.0299C33.6702 17.5346 33.6859 17.0394 33.6981 16.544H25.1576ZM92.0258 10.4816C90.1597 10.4687 88.3353 10.4162 86.4691 10.4031L84.1654 10.3078C82.2586 10.2153 79.3779 10.8741 79.3731 7.90113C79.37 5.97315 81.3251 5.93064 82.8187 5.86207C84.976 5.79788 84.6567 5.76308 86.8131 5.77829C88.1401 5.78767 88.2465 5.78851 89.6144 5.83748C91.4801 5.92981 92.7211 6.37351 92.8299 8.35171L101.083 8.40944C101.054 6.74822 101.196 5.44588 100.295 3.89721C98.329 0.759012 94.4275 0.176305 91.0277 0.112949L87.0325 0.00561948C83.8397 -0.0166801 79.2898 -0.00917742 76.3399 0.721707C71.936 1.75853 71.1686 4.4424 71.1383 8.35754C71.1216 10.4889 71.6389 12.106 72.5726 13.2737C73.8043 14.8142 75.761 15.5722 78.1733 15.696C82.7794 15.9321 83.8126 16.0123 88.4159 16.0446L89.9197 16.0553C91.7446 16.0682 93.8138 16.6244 93.7972 18.76C93.7797 21.0141 91.914 21.1208 90.046 21.1565C89.1253 21.174 88.0304 21.1713 86.1642 21.1583C84.8372 21.1492 85.2229 21.0923 83.8959 21.1027C81.6425 21.1212 79.5425 20.9847 79.5613 18.5722L71.267 18.5139L71.2578 19.7089C71.2117 25.677 75.328 26.4246 79.9127 26.7299C81.778 26.8618 83.6857 26.8752 85.5518 26.8885C89.16 26.9137 89.1207 26.8343 92.7302 26.662C99.1205 26.2322 102.115 25.0668 102.165 18.5814C102.219 11.7398 98.4537 10.5269 92.0258 10.4816ZM157.678 23.6486C157.491 23.336 157.232 23.0905 156.904 22.9123C156.575 22.7341 156.225 22.6449 155.852 22.6449C155.482 22.6449 155.132 22.7341 154.802 22.9123C154.473 23.0905 154.214 23.336 154.027 23.6486C153.84 23.9612 153.747 24.2965 153.747 24.6548C153.747 25.0195 153.844 25.359 154.039 25.6733C154.234 25.9876 154.492 26.231 154.815 26.4035C155.138 26.5759 155.484 26.6624 155.852 26.6624C156.221 26.6624 156.567 26.5759 156.891 26.4035C157.214 26.231 157.473 25.9876 157.668 25.6733C157.863 25.359 157.96 25.0195 157.96 24.6548C157.96 24.2965 157.866 23.9612 157.678 23.6486ZM157.394 25.5205C157.228 25.7866 157.009 25.9928 156.734 26.1384C156.46 26.2841 156.166 26.3571 155.852 26.3571C155.538 26.3571 155.244 26.2841 154.97 26.1384C154.696 25.9928 154.476 25.7866 154.312 25.5205C154.147 25.2544 154.064 24.9657 154.064 24.6548C154.064 24.3503 154.144 24.0654 154.303 23.7999C154.462 23.5344 154.681 23.3262 154.96 23.1747C155.239 23.0232 155.536 22.9475 155.852 22.9475C156.168 22.9475 156.466 23.0232 156.745 23.1747C157.024 23.3262 157.243 23.5346 157.402 23.7999C157.561 24.0652 157.64 24.3503 157.64 24.6548C157.643 24.9595 157.558 25.2592 157.394 25.5205Z" fill="black"/>
<path d="M156.444 25.1408C156.342 24.9601 156.245 24.8428 156.155 24.789C156.327 24.719 156.455 24.6198 156.539 24.491C156.623 24.3622 156.664 24.2271 156.664 24.0856C156.664 23.9635 156.635 23.8503 156.575 23.7461C156.515 23.6419 156.434 23.5617 156.33 23.5056C156.227 23.4496 156.075 23.4214 155.873 23.4214H155.046V25.9027H155.456V24.8599H155.761C155.803 24.8599 155.872 24.9405 155.968 25.1016L156.053 25.2554L156.409 25.9025H156.875L156.444 25.1408ZM155.74 24.5619H155.456V23.7218H155.766C155.909 23.7218 156.009 23.7405 156.067 23.778C156.124 23.8155 156.167 23.8622 156.197 23.9185C156.227 23.9748 156.242 24.0377 156.242 24.1077C156.242 24.2217 156.205 24.3259 156.132 24.4203C156.058 24.5148 155.928 24.5619 155.74 24.5619Z" fill="black"/>
</g>
<defs>
<clipPath id="clip0_474_1340">
<rect width="158" height="27" fill="white"/>
</clipPath>
</defs>
</svg>
