<svg width="190" height="30" viewBox="0 0 190 30" fill="none" xmlns="http://www.w3.org/2000/svg">
<g clip-path="url(#clip0_474_1363)">
<path d="M190 3.49867C190 3.82902 189.891 4.15196 189.687 4.42665C189.483 4.70133 189.193 4.91542 188.853 5.04184C188.514 5.16826 188.14 5.20134 187.78 5.13689C187.419 5.07244 187.088 4.91336 186.829 4.67976C186.569 4.44616 186.392 4.14854 186.32 3.82453C186.249 3.50052 186.285 3.16468 186.426 2.85946C186.567 2.55425 186.805 2.29339 187.11 2.10985C187.416 1.92631 187.775 1.82835 188.142 1.82835C188.635 1.82835 189.107 2.00433 189.456 2.31757C189.804 2.63082 190 3.05567 190 3.49867ZM189.75 3.49867C189.748 3.2131 189.653 2.93433 189.475 2.69755C189.298 2.46076 189.046 2.27657 188.752 2.16822C188.458 2.05987 188.135 2.03222 187.824 2.08876C187.513 2.14529 187.227 2.28348 187.003 2.48589C186.779 2.68829 186.627 2.94583 186.565 3.22601C186.504 3.50619 186.536 3.79645 186.658 4.06015C186.78 4.32386 186.986 4.54919 187.25 4.7077C187.514 4.86622 187.825 4.95082 188.142 4.95082C188.569 4.94902 188.978 4.79523 189.279 4.52309C189.581 4.25096 189.75 3.88262 189.75 3.49867ZM188.483 3.64184L189.044 4.41905H188.612L188.104 3.68274H187.816V4.41905H187.46V2.57147H188.218C188.384 2.56963 188.543 2.62658 188.663 2.72996C188.782 2.83334 188.851 2.97481 188.855 3.1237C188.863 3.23445 188.831 3.34458 188.764 3.43786C188.697 3.53114 188.599 3.60264 188.483 3.64184ZM187.816 3.42367H188.195C188.235 3.42458 188.275 3.41842 188.312 3.40555C188.349 3.39267 188.383 3.37334 188.412 3.34865C188.441 3.32395 188.464 3.29439 188.48 3.26164C188.496 3.22889 188.505 3.1936 188.506 3.15779C188.505 3.12227 188.496 3.08729 188.48 3.0549C188.464 3.02252 188.441 2.99339 188.412 2.96924C188.383 2.94509 188.348 2.92641 188.311 2.91429C188.274 2.90218 188.235 2.89688 188.195 2.89872H187.816V3.42367ZM120.335 7.27563H123.133V22.3289H120.335V7.27563ZM110.107 6.94157C108.323 6.94101 106.595 7.4977 105.217 8.51644V7.25518H102.427V22.3221H105.217V13.8274C105.217 12.6611 105.732 11.5426 106.649 10.718C107.566 9.89329 108.81 9.43 110.107 9.43C111.404 9.43 112.648 9.89329 113.565 10.718C114.482 11.5426 114.998 12.6611 114.998 13.8274V22.3221H117.795V13.8274C117.795 12.9199 117.597 12.0212 117.21 11.1829C116.824 10.3445 116.257 9.58289 115.543 8.9415C114.829 8.3001 113.982 7.79153 113.049 7.44486C112.116 7.09819 111.116 6.92022 110.107 6.92111V6.94157ZM96.8385 7.26881H99.6363V21.7563C99.586 23.828 98.6477 25.8023 97.0174 27.2669C95.3871 28.7316 93.1907 29.5735 90.8865 29.617C89.0219 29.6626 87.1929 29.1524 85.6844 28.1659C84.1758 27.1794 83.0725 25.772 82.5462 24.1629H85.5791C86.0424 25.069 86.7936 25.8316 87.7381 26.3545C88.6826 26.8774 89.7781 27.1373 90.8865 27.1013C92.4483 27.0537 93.9316 26.4746 95.0366 25.481C96.1415 24.4875 96.7856 23.1537 96.8385 21.7494V20.5427C95.5911 21.586 94.0321 22.2791 92.3529 22.537C90.6736 22.795 88.9472 22.6065 87.3853 21.9948C85.8235 21.3831 84.4942 20.3747 83.5606 19.0934C82.627 17.8121 82.1297 16.3136 82.1297 14.7818C82.1297 13.25 82.627 11.7515 83.5606 10.4702C84.4942 9.18895 85.8235 8.18058 87.3853 7.56886C88.9472 6.95715 90.6736 6.7687 92.3529 7.02665C94.0321 7.28459 95.5911 7.97771 96.8385 9.02094V7.26881ZM96.8385 14.8023C96.8385 13.7438 96.4894 12.7091 95.8354 11.829C95.1814 10.9489 94.2518 10.2629 93.1643 9.85784C92.0767 9.45277 90.8799 9.34679 89.7254 9.55329C88.5708 9.75979 87.5103 10.2695 86.6779 11.018C85.8455 11.7664 85.2786 12.72 85.049 13.7582C84.8193 14.7964 84.9372 15.8724 85.3877 16.8503C85.8381 17.8283 86.601 18.6641 87.5798 19.2522C88.5586 19.8402 89.7094 20.1541 90.8865 20.1541C91.6701 20.1541 92.4459 20.015 93.1695 19.7448C93.8931 19.4746 94.5503 19.0785 95.1033 18.5794C95.6563 18.0802 96.0942 17.4879 96.392 16.8362C96.6897 16.1845 96.8415 15.4864 96.8385 14.7818V14.8023ZM53.6205 9.45045C54.754 9.44959 55.8642 9.73978 56.8205 10.2869C57.7769 10.834 58.5396 11.6153 59.0189 12.5388H61.9987C61.3945 10.7303 60.087 9.17745 58.315 8.16392C56.5429 7.1504 54.4246 6.74379 52.3467 7.01835C50.2689 7.29291 48.3702 8.23032 46.9974 9.6594C45.6245 11.0885 44.8691 12.9139 44.8691 14.8023C44.8691 16.6907 45.6245 18.5161 46.9974 19.9452C48.3702 21.3743 50.2689 22.3117 52.3467 22.5862C54.4246 22.8608 56.5429 22.4542 58.315 21.4407C60.087 20.4271 61.3945 18.8743 61.9987 17.0657H59.0038C58.5493 17.9318 57.8447 18.6723 56.9635 19.2101C56.0823 19.7478 55.0568 20.0632 53.9939 20.1231C52.931 20.1831 51.8696 19.9856 50.9206 19.5511C49.9715 19.1166 49.1695 18.4611 48.5981 17.653C48.0268 16.8449 47.707 15.9137 47.6723 14.9566C47.6375 13.9995 47.8889 13.0515 48.4004 12.2116C48.9119 11.3716 49.6646 10.6705 50.5801 10.1812C51.4956 9.69195 52.5403 9.43253 53.6053 9.43L53.6205 9.45045ZM80.8099 14.8023C80.8069 16.3566 80.292 17.8753 79.33 19.1667C78.3681 20.4581 77.0023 21.4644 75.405 22.0586C73.8077 22.6528 72.0505 22.8082 70.355 22.5053C68.6596 22.2024 67.1019 21.4547 65.8785 20.3566C64.6552 19.2585 63.821 17.8592 63.4812 16.3352C63.1414 14.8112 63.3112 13.2309 63.9692 11.7936C64.6273 10.3563 65.744 9.12649 67.1786 8.25933C68.6132 7.39216 70.3013 6.9265 72.0298 6.92111C73.1795 6.91932 74.3183 7.12127 75.3811 7.51543C76.444 7.90958 77.41 8.4882 78.224 9.21823C79.038 9.94825 79.684 10.8154 80.1251 11.77C80.5662 12.7246 80.7938 13.7481 80.7948 14.7818L80.8099 14.8023ZM78.0197 14.8023C78.0242 13.7444 77.6799 12.709 77.0303 11.827C76.3806 10.945 75.4549 10.2558 74.3699 9.84665C73.285 9.43746 72.0895 9.32659 70.9345 9.52803C69.7795 9.72946 68.7168 10.2342 67.8806 10.9784C67.0444 11.7227 66.4723 12.673 66.2366 13.7095C66.0008 14.7459 66.1119 15.8219 66.5559 16.8016C66.9999 17.7813 67.7569 18.6207 68.7312 19.2137C69.7054 19.8068 70.8533 20.1269 72.0298 20.1337C72.8131 20.1355 73.5891 19.9984 74.3134 19.7303C75.0377 19.4623 75.6961 19.0684 76.251 18.5714C76.8059 18.0743 77.2464 17.4838 77.5473 16.8336C77.8482 16.1833 78.0035 15.4861 78.0045 14.7818L78.0197 14.8023ZM169.384 6.92111C167.613 6.92842 165.899 7.48465 164.532 8.49599V7.25518H161.741V22.3221H164.532V13.8274C164.532 12.6611 165.047 11.5426 165.964 10.718C166.881 9.89329 168.125 9.43 169.422 9.43C170.719 9.43 171.963 9.89329 172.88 10.718C173.797 11.5426 174.312 12.6611 174.312 13.8274V22.3221H177.103V13.8274C177.104 12.9173 176.904 12.016 176.516 11.1755C176.128 10.3349 175.559 9.57173 174.842 8.9298C174.124 8.28786 173.273 7.7799 172.336 7.43516C171.399 7.09042 170.396 6.91572 169.384 6.92111ZM156.115 7.262H158.913V22.3289H156.115V20.5427C155.071 21.4103 153.806 22.0357 152.432 22.3645C151.058 22.6934 149.615 22.7158 148.229 22.4298C146.843 22.1439 145.555 21.5582 144.478 20.7235C143.4 19.8889 142.566 18.8305 142.046 17.6402C141.527 16.4499 141.338 15.1636 141.496 13.8928C141.654 12.622 142.155 11.4052 142.955 10.3478C143.755 9.29038 144.829 8.42438 146.085 7.82488C147.341 7.22538 148.741 6.91047 150.163 6.90748C152.371 6.9052 154.498 7.65555 156.115 9.00731V7.262ZM156.115 14.7614C156.115 13.7029 155.766 12.6682 155.112 11.7881C154.458 10.908 153.529 10.222 152.441 9.81693C151.354 9.41186 150.157 9.30588 149.002 9.51238C147.848 9.71888 146.787 10.2286 145.955 10.9771C145.122 11.7255 144.556 12.6791 144.326 13.7173C144.096 14.7554 144.214 15.8315 144.665 16.8094C145.115 17.7874 145.878 18.6232 146.857 19.2113C147.835 19.7993 148.986 20.1132 150.163 20.1132C151.738 20.1132 153.249 19.5522 154.364 18.5529C155.48 17.5537 156.109 16.1977 156.115 14.7818V14.7614ZM186.406 9.74361V7.25518H182.221V3.1646H179.423V17.2975C179.423 18.629 180.01 19.906 181.057 20.848C182.103 21.7901 183.522 22.3203 185.003 22.3221H186.398V19.786H185.003C184.262 19.7842 183.553 19.5183 183.03 19.0467C182.507 18.5751 182.213 17.9363 182.213 17.2703V9.77088L186.406 9.74361ZM121.738 1.82153C121.37 1.82018 121.01 1.91717 120.703 2.10019C120.397 2.28321 120.157 2.544 120.016 2.84949C119.874 3.15498 119.837 3.49139 119.908 3.81603C119.98 4.14067 120.157 4.43892 120.417 4.67293C120.677 4.90694 121.009 5.06616 121.37 5.13039C121.731 5.19462 122.105 5.16097 122.445 5.0337C122.785 4.90644 123.075 4.69129 123.278 4.41557C123.482 4.13984 123.59 3.81597 123.588 3.48503C123.588 3.04384 123.393 2.62073 123.046 2.30876C122.699 1.99679 122.229 1.82153 121.738 1.82153ZM139.935 7.27563H125.954V9.79133H136.296L125.954 19.786V22.3017H139.92V19.786H129.57L139.912 9.74361L139.935 7.27563Z" fill="#000048"/>
<path fill-rule="evenodd" clip-rule="evenodd" d="M16.855 15H0L11.5779 29.9851L23.5879 23.5357L16.855 15Z" fill="url(#paint0_linear_474_1363)"/>
<path fill-rule="evenodd" clip-rule="evenodd" d="M39.5177 15L11.5776 29.9851H28.1597L39.5177 15Z" fill="url(#paint1_linear_474_1363)"/>
<path fill-rule="evenodd" clip-rule="evenodd" d="M0 15H16.855L23.6031 6.46433L11.5779 0.0148621L0 15Z" fill="url(#paint2_linear_474_1363)"/>
<path fill-rule="evenodd" clip-rule="evenodd" d="M39.5177 15L11.5776 0.0148621H28.1597L39.5177 15Z" fill="url(#paint3_linear_474_1363)"/>
</g>
<defs>
<linearGradient id="paint0_linear_474_1363" x1="-0.586703" y1="22.1493" x2="22.9318" y2="22.1493" gradientUnits="userSpaceOnUse">
<stop stop-color="#3D54CE"/>
<stop offset="1" stop-color="#35CACF"/>
</linearGradient>
<linearGradient id="paint1_linear_474_1363" x1="9.30149" y1="22.1493" x2="37.2849" y2="22.1493" gradientUnits="userSpaceOnUse">
<stop stop-color="#13457D"/>
<stop offset="1" stop-color="#279698"/>
</linearGradient>
<linearGradient id="paint2_linear_474_1363" x1="-0.117523" y1="7.20916" x2="23.4185" y2="7.20916" gradientUnits="userSpaceOnUse">
<stop stop-color="#090086"/>
<stop offset="1" stop-color="#2F96A9"/>
</linearGradient>
<linearGradient id="paint3_linear_474_1363" x1="9.30149" y1="7.20916" x2="37.2849" y2="7.20916" gradientUnits="userSpaceOnUse">
<stop stop-color="#3B62CA"/>
<stop offset="1" stop-color="#93DFE3"/>
</linearGradient>
<clipPath id="clip0_474_1363">
<rect width="190" height="30" fill="white"/>
</clipPath>
</defs>
</svg>
