<svg width="161" height="29" viewBox="0 0 161 29" fill="none" xmlns="http://www.w3.org/2000/svg">
<g clip-path="url(#clip0_474_1370)">
<path d="M0.16052 23.0358H3.01943V6.69295H0.0458984V0.64719H21.1513V10.0104H14.5506V7.00898H10.3262V11.5116H16.2674V18.2197H10.3262V22.8382H14.6652V19.8385H21.1513V29H0.16052V23.0358ZM43.1023 6.27186V0.64719H35.793V1.11703C34.7456 0.542126 33.4923 0.221893 32.0238 0.221893C26.4929 0.221893 22.0101 4.75895 22.0101 10.3559C22.0101 15.952 26.4929 20.489 32.0238 20.489C33.4923 20.489 34.7448 20.1696 35.793 19.5947V19.92H43.1023V13.591H41.5034V6.27186H43.1023Z" fill="black"/>
<path d="M32.0236 15.0947C31.4085 15.0948 30.7994 14.9722 30.2311 14.7341C29.6627 14.4959 29.1464 14.1468 28.7114 13.7067C28.2765 13.2666 27.9315 12.744 27.6961 12.1689C27.4608 11.5939 27.3397 10.9775 27.3398 10.355C27.3397 9.73255 27.4608 9.11614 27.6961 8.54101C27.9315 7.96587 28.2764 7.44328 28.7114 7.00308C29.1463 6.56287 29.6627 6.21368 30.231 5.97544C30.7993 5.7372 31.4084 5.61458 32.0236 5.61458C33.8924 5.61458 35.2072 6.72237 35.7928 8.32521V12.384C35.2072 13.9869 33.8932 15.0947 32.0236 15.0947Z" fill="white"/>
<path d="M45.5009 19.9183V13.591H50.6406C50.6406 13.591 51.212 15.6712 53.3816 15.6712C54.4098 15.6712 55.0942 15.3241 55.0942 14.4004C55.0942 11.8579 45.2725 12.8976 45.2725 5.84824C45.2725 -0.277374 53.2669 -1.08594 55.2089 1.1103V0.647183H59.3203V6.27185H54.6374C54.6374 6.27185 53.4953 4.69254 52.2387 4.69254C50.9828 4.69254 50.526 5.38596 50.526 5.96339C50.526 8.9682 60.3477 7.46621 60.3477 14.6307C60.3477 20.8715 52.2387 21.6809 49.9545 19.0232V19.9183H45.5009Z" fill="black"/>
<path d="M60.8039 0.647185V6.27185H62.632V20.0629L60.4617 22.8946H23.4014V29H62.1752L78.1641 6.27185H79.763V0.647185H70.9687V6.27185H72.2245L68.3423 11.857V6.27185H69.3698V0.647185H60.8039ZM128.307 6.19453V0.569858H120.998V1.0397C119.95 0.464795 118.698 0.144562 117.229 0.144562C111.699 0.144562 107.215 4.68162 107.215 10.2786C107.215 15.8755 111.699 20.4117 117.229 20.4117C118.698 20.4117 119.95 20.0915 120.998 19.5166V19.8418H128.307V13.5145H126.708V6.19453H128.307Z" fill="black"/>
<path d="M117.229 15.0182C114.643 15.0182 112.659 12.8959 112.659 10.2786C112.659 7.66122 114.643 5.5381 117.229 5.5381C119.098 5.5381 120.412 6.64673 120.998 8.24873V12.3075C120.412 13.9095 119.098 15.0182 117.229 15.0182Z" fill="white"/>
<path d="M100.663 18.4449C99.5009 21.1598 96.8306 23.0148 94.1478 23.0148C90.3029 23.0148 86.9573 19.2098 86.9573 14.5156C86.9573 9.82132 90.3021 6.01635 94.1478 6.01635C97.0175 6.01635 99.481 8.13695 100.547 11.1636H106.152V0.532042H100.898V2.26937C98.9145 1.11307 96.6653 0.505212 94.3762 0.506827C86.9897 0.506827 81.002 6.72658 81.002 14.3996C81.002 22.0717 86.9897 28.2915 94.3762 28.2915C100.408 28.2915 105.506 24.1436 107.174 18.4441H100.663V18.4449ZM141.155 5.61711V0.0697632C141.155 0.0697632 139.066 0.205925 136.759 2.11051V0.647191H129.907V6.19453H131.391V13.707H129.907V19.9477H138.815V13.707H137.102V8.4202C139.012 5.57508 141.155 5.61711 141.155 5.61711ZM154.672 13.8221C153.843 14.7954 152.624 15.2081 151.264 15.2081C149.447 15.2081 147.881 14.3508 147.162 12.5504H160.654C160.854 11.7571 160.954 10.9417 160.954 10.1231C160.954 4.70768 156.615 0.316872 151.264 0.316872C145.912 0.316872 141.573 4.70768 141.573 10.1231C141.573 15.5384 145.912 19.9293 151.264 19.9293C155.322 19.9293 158.796 17.4035 160.239 13.8213H154.672V13.8221Z" fill="black"/>
<path d="M151.263 5.54819C152.096 5.54806 152.914 5.78114 153.625 6.22169C154.335 6.66223 154.912 7.29308 155.29 8.04449H147.235C147.614 7.29302 148.19 6.66212 148.901 6.22157C149.612 5.78101 150.429 5.54796 151.263 5.54819Z" fill="white"/>
<path d="M104.21 29H151.149L155.718 22.8946H108.778L104.21 29ZM158.687 28.731C157.51 28.731 156.569 27.7485 156.569 26.5642C156.581 25.9999 156.812 25.463 157.211 25.0688C157.61 24.6746 158.147 24.4546 158.704 24.456C159.262 24.4574 159.797 24.6802 160.194 25.0764C160.592 25.4727 160.82 26.0108 160.829 26.5751C160.827 27.1484 160.601 27.6975 160.199 28.1018C159.797 28.506 159.254 28.7324 158.687 28.731Z" fill="black"/>
<path d="M160.536 26.5634C160.536 26.3186 160.487 26.0763 160.394 25.8505C160.3 25.6247 160.164 25.4198 159.992 25.2475C159.82 25.0751 159.616 24.9388 159.392 24.8463C159.168 24.7538 158.929 24.7069 158.687 24.7084C157.682 24.7084 156.865 25.5464 156.865 26.5634C156.865 27.609 157.682 28.4301 158.715 28.4301C159.726 28.4301 160.536 27.5753 160.536 26.5634Z" fill="white"/>
<path d="M159.84 27.8292H159.423L158.737 26.6676H158.183V27.8292H157.824V25.2631H158.983C159.183 25.2631 159.4 25.269 159.589 25.3791C159.8 25.501 159.885 25.7254 159.885 25.9624C159.885 26.4474 159.565 26.6558 159.114 26.6676L159.84 27.8292Z" fill="black"/>
<path d="M158.846 26.3902C159.166 26.3902 159.526 26.3499 159.526 25.9397C159.526 25.564 159.178 25.5237 158.892 25.5237H158.184V26.3902H158.846Z" fill="white"/>
</g>
<defs>
<clipPath id="clip0_474_1370">
<rect width="161" height="29" fill="white"/>
</clipPath>
</defs>
</svg>
