<svg width="122" height="41" viewBox="0 0 122 41" fill="none" xmlns="http://www.w3.org/2000/svg">
<g clip-path="url(#clip0_474_1337)">
<path d="M0.0249023 0H121.976V41H0.0249023V0Z" fill="#E22319"/>
<path d="M53.112 13.8213C51.2694 13.8213 49.3118 14.6343 48.0451 16.3766V14.1699H43.7843V29.9659H48.0451V20.9064C48.0451 19.2804 49.3118 17.5382 51.615 17.5382C53.3424 17.5382 55.185 18.8158 55.185 20.9064V29.8497H59.4458V20.0934C59.5608 16.4928 56.9121 13.8213 53.112 13.8213ZM90.0772 14.0537L86.1621 24.8553L82.2465 14.0537H77.41L83.8588 29.8497H88.5801L94.9137 14.0537H90.0772ZM39.1781 24.9714C37.3355 26.3653 36.299 26.5977 34.6868 26.5977C33.1899 26.5977 32.0382 26.1331 31.2321 25.3201L42.1719 20.6742C41.9417 18.932 41.2507 17.422 40.3296 16.2606C38.8324 14.5184 36.7596 13.7053 34.1112 13.7053C29.3897 13.7053 25.8198 17.1898 25.8198 21.8356C25.8198 26.5977 29.3897 29.9661 34.5716 29.9661C37.4505 29.9661 40.4446 28.5723 41.8265 26.9461L39.1781 24.9714ZM30.8867 18.8158C31.5778 17.7704 32.7291 17.1898 34.2262 17.1898C35.7231 17.1898 36.9899 18.119 37.5657 19.3966L30.0806 22.5326C29.8504 21.0226 30.311 19.745 30.8867 18.8158ZM25.4744 25.9007H15.6861V9.4079H11.3101V29.8497H25.4744V25.9007ZM102.629 30.0819C97.9082 30.0819 94.223 26.5977 94.223 21.9516C94.223 17.4218 97.908 13.8213 102.629 13.8213C107.351 13.8213 111.036 17.3058 111.036 21.9516C111.151 26.5977 107.466 30.0819 102.629 30.0819ZM102.629 17.5382C100.211 17.5382 98.4836 19.3966 98.4836 21.9518C98.4836 24.3908 100.326 26.3655 102.629 26.3655C105.048 26.3655 106.775 24.5071 106.775 21.9518C106.89 19.5126 105.047 17.5382 102.629 17.5382ZM69.5793 30.0819C64.8581 30.0819 61.1729 26.5977 61.1729 21.9516C61.1729 17.4218 64.8581 13.8213 69.5793 13.8213C74.3007 13.8213 77.9857 17.3058 77.9857 21.9516C77.9857 26.5975 74.3009 30.0819 69.5793 30.0819ZM69.5793 17.5382C67.1611 17.5382 65.4335 19.3966 65.4335 21.9518C65.4335 24.3908 67.2761 26.3655 69.5793 26.3655C71.9977 26.3655 73.7251 24.5071 73.7251 21.9518C73.8401 19.5126 71.9977 17.5382 69.5793 17.5382ZM111.727 27.9913H111.036V27.6429H112.878V27.9913H112.187V29.8497H111.727V27.9913ZM113.339 27.6431H113.8L114.491 28.6885L115.182 27.6431H115.642V29.9661H115.182V28.3399L114.491 29.3853L113.8 28.3399V29.9661H113.339V27.6431Z" fill="white"/>
</g>
<defs>
<clipPath id="clip0_474_1337">
<rect width="122" height="41" fill="white"/>
</clipPath>
</defs>
</svg>
