<svg width="187" height="29" viewBox="0 0 187 29" fill="none" xmlns="http://www.w3.org/2000/svg">
<path d="M83.6137 8.58025L87.5119 5.78413H74.4614V22.5334H87.5119V19.7373H78.1901V15.4609H86.156V12.6648H78.1901V8.58025H83.6137Z" fill="#21A038"/>
<path d="M64.6028 12.3084H60.0832V8.58025H67.3146L71.2128 5.78413H56.3545V22.5334H64.1226C68.4728 22.5334 70.9868 20.6145 70.9868 17.2701C70.9868 14.0628 68.727 12.3084 64.6028 12.3084ZM63.9814 19.7373H60.0832V15.1045H63.9814C66.3542 15.1045 67.4559 15.8721 67.4559 17.4346C67.4559 18.9972 66.2694 19.7373 63.9814 19.7373Z" fill="#21A038"/>
<path d="M98.0765 5.78413H90.9863V22.5334H94.715V17.791H98.1048C102.624 17.791 105.449 15.4883 105.449 11.7876C105.449 8.08682 102.624 5.78413 98.0765 5.78413ZM97.9918 14.9949H94.6868V8.58025H97.9918C100.393 8.58025 101.692 9.73159 101.692 11.7876C101.692 13.8435 100.393 14.9949 97.9918 14.9949Z" fill="#21A038"/>
<path d="M49.9706 18.9149C48.982 19.4358 47.8803 19.7099 46.7504 19.7099C43.3889 19.7099 40.9596 17.3798 40.9596 14.1725C40.9596 10.9652 43.3889 8.63506 46.7504 8.63506C47.965 8.60765 49.1514 8.99143 50.1401 9.67676L52.8236 7.75785L52.6542 7.59337C51.1005 6.25014 49.0102 5.56482 46.6374 5.56482C44.0668 5.56482 41.7223 6.41462 40.0274 7.94974C38.3326 9.53969 37.3721 11.7601 37.4286 14.0628C37.4004 16.3929 38.3326 18.6408 40.0274 20.2856C41.807 21.9029 44.1798 22.8075 46.6091 22.7527C49.2927 22.7527 51.6372 21.8481 53.2191 20.2033L50.8181 18.4763L49.9706 18.9149Z" fill="#21A038"/>
<path d="M150.278 5.81155V22.5608H154.007V15.7076H161.945V22.5608H165.673V5.81155H161.945V12.6922H154.007V5.81155H150.278ZM143.866 22.5608H147.793L140.505 5.81155H136.719L129.29 22.5608H133.047L134.544 19.189H142.454L143.866 22.5608ZM135.674 16.3929L138.556 9.67677L141.267 16.3929H135.674ZM174.035 15.7898H176.351L182.057 22.5334H186.859L179.232 13.8709L185.899 5.78413H181.633L176.097 12.9663H174.035V5.78413H170.306V22.5334H174.035V15.7898ZM116.974 12.3358V8.60766H126.72V5.81155H113.246V22.5608H121.014C125.364 22.5608 127.878 20.6419 127.878 17.2976C127.878 14.0902 125.618 12.3358 121.494 12.3358H116.974ZM116.974 19.7647V15.1319H120.872C123.245 15.1319 124.347 15.8995 124.347 17.462C124.347 19.0246 123.189 19.7921 120.872 19.7921H116.974V19.7647Z" fill="#21A038"/>
<path d="M25.762 5.67447C26.4399 6.52427 27.0049 7.45631 27.4851 8.44317L14.4347 17.791L8.95459 14.4466V10.4443L14.4064 13.7613L25.762 5.67447Z" fill="#21A038"/>
<path d="M3.38995 14.1725C3.38995 13.9806 3.38995 13.8161 3.41819 13.6242L0.113209 13.4597C0.113209 13.6791 0.0849609 13.9258 0.0849609 14.1451C0.0849609 17.9829 1.69508 21.4643 4.29387 23.9863L6.63844 21.711C4.63285 19.7921 3.38995 17.1331 3.38995 14.1725Z" fill="url(#paint0_linear_474_1346)"/>
<path d="M14.4066 3.48145C14.6044 3.48145 14.7739 3.48145 14.9716 3.50886L15.1411 0.301552C14.9151 0.301552 14.6609 0.274139 14.4349 0.274139C10.4802 0.274139 6.89274 1.83667 4.29395 4.35866L6.63851 6.63393C8.61585 4.68762 11.3841 3.48145 14.4066 3.48145Z" fill="url(#paint1_linear_474_1346)"/>
<path d="M14.4068 24.8635C14.2091 24.8635 14.0396 24.8635 13.8418 24.8361L13.6724 28.0434C13.8983 28.0434 14.1526 28.0708 14.3786 28.0708C18.3332 28.0708 21.9207 26.5083 24.5195 23.9863L22.1749 21.711C20.1976 23.6848 17.4576 24.8635 14.4068 24.8635Z" fill="url(#paint2_linear_474_1346)"/>
<path d="M20.6212 5.34552L23.4178 3.34438C20.9602 1.42547 17.8247 0.246719 14.4067 0.246719V3.45403C16.7231 3.48144 18.8699 4.16677 20.6212 5.34552Z" fill="url(#paint3_linear_474_1346)"/>
<path d="M28.7566 14.1725C28.7566 13.3227 28.6718 12.5003 28.5306 11.6779L25.4516 13.8983C25.4516 13.9806 25.4516 14.0902 25.4516 14.1725C25.4516 17.325 24.0392 20.1485 21.8076 22.0948L24.0392 24.4797C26.9205 21.9577 28.7566 18.257 28.7566 14.1725Z" fill="#21A038"/>
<path d="M14.4068 24.8635C11.1583 24.8635 8.24879 23.4929 6.2432 21.3272L3.78564 23.4929C6.41268 26.3164 10.1979 28.0708 14.4068 28.0708V24.8635Z" fill="url(#paint4_linear_474_1346)"/>
<path d="M7.0339 6.25014L4.80233 3.86522C1.89282 6.41462 0.0849609 10.0879 0.0849609 14.1725H3.38995C3.38995 11.0474 4.80233 8.19646 7.0339 6.25014Z" fill="url(#paint5_linear_474_1346)"/>
<defs>
<linearGradient id="paint0_linear_474_1346" x1="3.952" y1="23.5961" x2="0.746172" y2="14.0777" gradientUnits="userSpaceOnUse">
<stop offset="0.1444" stop-color="#F2E913"/>
<stop offset="0.3037" stop-color="#E7E518"/>
<stop offset="0.5823" stop-color="#CADB26"/>
<stop offset="0.891" stop-color="#A3CD39"/>
</linearGradient>
<linearGradient id="paint1_linear_474_1346" x1="5.23604" y1="3.98681" x2="13.7443" y2="0.656421" gradientUnits="userSpaceOnUse">
<stop offset="0.0592" stop-color="#0FA8E0"/>
<stop offset="0.5385" stop-color="#0099F9"/>
<stop offset="0.9234" stop-color="#0291EB"/>
</linearGradient>
<linearGradient id="paint2_linear_474_1346" x1="13.4783" y1="25.3349" x2="23.6649" y2="22.9701" gradientUnits="userSpaceOnUse">
<stop offset="0.1226" stop-color="#A3CD39"/>
<stop offset="0.2846" stop-color="#86C339"/>
<stop offset="0.8693" stop-color="#21A038"/>
</linearGradient>
<linearGradient id="paint3_linear_474_1346" x1="13.7277" y1="2.29882" x2="22.1803" y2="4.97764" gradientUnits="userSpaceOnUse">
<stop offset="0.0566" stop-color="#0291EB"/>
<stop offset="0.79" stop-color="#0C8ACB"/>
</linearGradient>
<linearGradient id="paint4_linear_474_1346" x1="4.62599" y1="24.0138" x2="13.6838" y2="27.49" gradientUnits="userSpaceOnUse">
<stop offset="0.1324" stop-color="#F2E913"/>
<stop offset="0.2977" stop-color="#EBE716"/>
<stop offset="0.5306" stop-color="#D9E01F"/>
<stop offset="0.8023" stop-color="#BBD62D"/>
<stop offset="0.9829" stop-color="#A3CD39"/>
</linearGradient>
<linearGradient id="paint5_linear_474_1346" x1="2.59974" y1="14.5599" x2="6.07061" y2="5.2857" gradientUnits="userSpaceOnUse">
<stop offset="0.0698" stop-color="#A3CD39"/>
<stop offset="0.2599" stop-color="#81C55F"/>
<stop offset="0.9216" stop-color="#0FA8E0"/>
</linearGradient>
</defs>
</svg>
