<svg width="175" height="46" viewBox="0 0 175 46" fill="none" xmlns="http://www.w3.org/2000/svg">
<path d="M59.2487 18.7356V37.4711H66.2272V0H59.2487V18.7356ZM9.30429 8.31915C7.07389 8.72462 5.32242 9.53556 3.72146 10.9058C1.96998 12.4298 0.971097 14.3733 0.86163 16.5684C0.670062 20.0359 2.46259 22.7623 6.08869 24.538C7.63491 25.279 9.00325 25.7404 11.3568 26.2857C15.8176 27.3343 16.8302 27.8936 16.8302 29.3198C16.8302 30.1447 16.5154 30.662 15.7492 31.0954C13.4504 32.3678 9.03062 31.6827 4.5151 29.3617C3.89934 29.0401 3.33832 28.8304 3.28359 28.9003C3.22886 28.9562 2.42154 30.2006 1.50475 31.6407C-0.0414741 34.1015 -0.137258 34.2973 0.0953598 34.465C0.724796 34.9544 3.61199 36.3666 4.78876 36.7581C8.3875 37.9745 13.2862 38.31 16.4744 37.555C20.4563 36.6043 23.4666 33.8498 24.1508 30.5222C24.7255 27.7538 24.0687 25.293 22.2351 23.4195C21.4415 22.5945 21.0173 22.3009 19.7037 21.6438C17.788 20.679 17.0901 20.4413 13.7103 19.5605C9.07167 18.3441 8.20961 17.8687 8.20961 16.4985C8.20961 14.0097 13.724 13.6322 19.2384 15.7435C19.9637 16.0231 20.6068 16.1909 20.6615 16.121C20.8394 15.9392 23.9455 11.0456 23.9455 10.9617C23.9455 10.8219 21.4415 9.68936 20.3194 9.32584C18.7048 8.79453 17.7606 8.57082 16.0365 8.33313C14.1756 8.06748 10.7547 8.06748 9.30429 8.31915ZM38.2447 8.38906C32.7303 9.52158 28.2558 13.9258 26.8738 19.5745C26.6685 20.4134 26.6138 21.1404 26.6138 23.1398C26.6138 26.09 26.8327 27.0967 27.9137 29.4316C30.582 35.1641 36.329 38.4498 42.7055 37.8906C49.3556 37.2894 54.5553 32.5915 55.8962 25.9362C56.1562 24.6079 56.1973 21.7277 55.9647 20.4134C55.7457 19.169 55.1847 17.4213 54.6921 16.4286C52.6122 12.2061 48.5893 9.11611 44.0738 8.31915C42.5139 8.03951 39.7909 8.06748 38.2447 8.38906ZM42.7739 14.9745C45.5242 15.4778 47.9051 17.8547 48.6577 20.8328C48.9724 22.1192 48.8767 24.7757 48.4525 26.0061C48.0557 27.1666 47.0978 28.6346 46.2768 29.3617C43.9917 31.3471 40.694 31.7526 37.9026 30.3824C36.9721 29.921 35.248 28.1872 34.7143 27.1666C33.8523 25.5167 33.5513 22.8182 34.0028 20.8468C34.947 16.7781 38.7509 14.2195 42.7739 14.9745ZM110.698 8.31915C108.96 8.68267 107.661 9.25593 106.224 10.3046L105.362 10.9198V8.66869H98.2464V46H105.362V35.0942L106.224 35.7374C108.468 37.4571 111.437 38.1982 114.694 37.8906C118.06 37.555 120.851 36.2267 123.15 33.8498C124.833 32.1021 125.969 30.1307 126.639 27.7678C127.173 25.8523 127.296 24.7617 127.214 22.3708C127.173 20.6371 127.077 19.924 126.79 18.8055C126.147 16.2608 124.806 13.8699 123.095 12.1362C120.372 9.38176 117.212 8.09544 113.243 8.1234C112.34 8.1234 111.191 8.22128 110.698 8.31915ZM114.311 15.1003C115.693 15.4638 116.719 16.065 117.745 17.1416C119.264 18.7076 120.003 20.6231 120.003 23C120.003 25.4608 119.305 27.2784 117.745 28.8723C116.199 30.4663 114.516 31.1793 112.327 31.1793C109.946 31.1793 108.235 30.4663 106.497 28.7465L105.362 27.6419V18.386L106.361 17.4073C107.661 16.135 109.426 15.1982 111.109 14.9185C111.998 14.7647 113.339 14.8486 114.311 15.1003ZM140.391 8.38906C139.748 8.52888 138.982 8.7386 138.681 8.85046C134.371 10.4584 131.36 14.0796 130.676 18.4559C130.594 19.0012 130.539 22.9161 130.539 28.4109V37.4711H137.518V29.0401C137.518 24.4122 137.586 20.2176 137.655 19.7283C137.832 18.4699 138.462 17.2255 139.338 16.4146C140.227 15.5897 141.13 15.1562 142.403 14.9325L143.402 14.7647V8.10942L142.485 8.1234C141.965 8.1234 141.034 8.24924 140.391 8.38906ZM157.4 8.5848C151.954 9.64742 147.452 13.814 145.947 19.197C145.016 22.4967 145.29 26.4535 146.672 29.5574C147.233 30.8158 148.574 32.7872 149.573 33.8219C151.078 35.3599 153.226 36.7441 155.238 37.4432C158.125 38.4498 162.052 38.4778 164.885 37.5131C168.661 36.2267 171.767 33.5422 173.505 30.0608C175.339 26.3976 175.503 21.2802 173.902 17.4772C172.096 13.1568 168.264 9.87112 163.721 8.72462C162.435 8.40304 158.754 8.33313 157.4 8.5848ZM162.066 15.3799C163.42 15.7295 164.447 16.3307 165.446 17.3514C166.923 18.8614 167.607 20.5112 167.717 22.8043C167.84 25.1252 167.306 27.0267 166.143 28.5088C164.583 30.5082 162.681 31.459 160.232 31.459C157.824 31.459 155.758 30.4663 154.389 28.6486C153.158 27.0128 152.693 25.5726 152.693 23.3495C152.693 20.7629 153.363 19.0152 154.95 17.4073C156.948 15.3799 159.397 14.6809 162.066 15.3799ZM69.5112 17.8967C69.5112 25.7824 69.5386 27.2924 69.7302 28.2152C70.6333 32.6894 74.1362 36.3106 78.7612 37.541C80.4169 37.9884 83.7146 38.0444 85.3292 37.6809C90.1047 36.5623 93.6214 33.2626 94.8529 28.7325C95.1539 27.6419 95.1539 27.4322 95.2086 18.1343L95.2497 8.66869H88.1343L88.0933 17.8687L88.0522 27.0547L87.6007 27.9915C87.1218 28.9982 86.1502 30.0049 85.1924 30.5082C83.4683 31.417 81.1284 31.3891 79.3359 30.4663C78.6107 30.0888 77.5297 28.9562 77.1329 28.1593C76.5171 26.9009 76.4898 26.4954 76.4898 17.3374V8.66869H69.5112V17.8967Z" fill="black"/>
</svg>
