<svg width="14" height="14" viewBox="0 0 14 14" fill="none" xmlns="http://www.w3.org/2000/svg">
<path fill-rule="evenodd" clip-rule="evenodd" d="M9.5 5C9.5 7.20914 7.70914 9 5.5 9C3.29086 9 1.5 7.20914 1.5 5C1.5 2.79086 3.29086 1 5.5 1C7.70914 1 9.5 2.79086 9.5 5ZM8.38038 9.08749C7.56613 9.66232 6.5725 10 5.5 10C2.73858 10 0.5 7.76142 0.5 5C0.5 2.23858 2.73858 0 5.5 0C8.26142 0 10.5 2.23858 10.5 5C10.5 6.32803 9.98225 7.53514 9.13758 8.43047L13.8536 13.1464L13.1464 13.8536L8.38038 9.08749Z" fill="black"/>
</svg>
